# xmcd CD database file
# Copyright (C) 1997 Ti Kan
# 
# Track frame offsets:
#     150
#     16587
#     29934
#     46448
#     69484
#     80350
#     103451
#     118060
#     127755
#     148870
#     160815
#     181752
# 
# Disc length: 2686 seconds
# 
# Revision: 1
# Processed by: cddbd v1.4b41PL1 Copyright (c) Steve Scherf et al.
# Submitted via: DiscPlay 4.0.3
# 
DISCID=a20a7c0c
DTITLE=Blue Lou and the Headhunters - Blue Lou and the Headhunters
DYEAR=1900
DGENRE=
TTITLE0=Cork Up That Bottle
TTITLE1=Chemical Man
TTITLE2=Foolkiller
TTITLE3=Baltimore
TTITLE4=Ain't Got You
TTITLE5=Third Degree
TTITLE6=Steppin' Out
TTITLE7=My Baby
TTITLE8=Down To The Bone
TTITLE9=Dance With A Dolly
TTITLE10=Black Cat Bone
TTITLE11=Watcha Gonna Do?
EXTD=
EXTT0=
EXTT1=
EXTT2=
EXTT3=
EXTT4=
EXTT5=
EXTT6=
EXTT7=
EXTT8=
EXTT9=
EXTT10=
EXTT11=
PLAYORDER=
